<svg width="6" height="7" viewBox="0 0 6 7" fill="none" xmlns="http://www.w3.org/2000/svg">
<path d="M5.11856 3.80864L5.63179 3.30636C5.78478 3.16152 5.71344 2.90414 5.51277 2.85615L4.81355 2.67769L5.01066 1.98555C5.06636 1.78647 4.87864 1.59869 4.67962 1.65441L3.98772 1.85158L3.80933 1.15213C3.76212 0.954596 3.50185 0.882353 3.35927 1.03307L2.85715 1.55028L2.35504 1.03308C2.21408 0.884072 1.95273 0.952342 1.90498 1.15214L1.72659 1.85159L1.03468 1.65442C0.835604 1.59868 0.647947 1.78653 0.70364 1.98557L0.900749 2.6777L0.201529 2.85616C0.00076971 2.90416 -0.0704246 3.16159 0.0824998 3.30636L0.595726 3.80864L0.0824998 4.31092C-0.0704916 4.45575 0.000847857 4.71314 0.201518 4.76113L0.900738 4.93959L0.703628 5.63172C0.647925 5.83081 0.835649 6.01859 1.03467 5.96287L1.72657 5.7657L1.90496 6.46515C1.9545 6.67246 2.21407 6.73321 2.35502 6.58421L2.85715 6.07081L3.35926 6.58421C3.49877 6.73475 3.7609 6.66776 3.80932 6.46515L3.98771 5.7657L4.67961 5.96287C4.87867 6.01861 5.06634 5.83076 5.01065 5.63172L4.81354 4.93959L5.51276 4.76113C5.7135 4.71312 5.7847 4.4557 5.63177 4.31092L5.11856 3.80864V3.80864Z" fill="white"/>
</svg>
