<svg width="8" height="8" viewBox="0 0 8 8" fill="none" xmlns="http://www.w3.org/2000/svg">
<path d="M7.35323 3.57662L4.37232 0.123996C4.33874 0.0850905 4.29715 0.0538739 4.25039 0.0324755C4.20363 0.011077 4.1528 0 4.10136 0C4.04992 0 3.99909 0.011077 3.95233 0.0324755C3.90557 0.0538739 3.86398 0.0850905 3.8304 0.123996L0.849488 3.57662C0.793206 3.6412 0.762207 3.72392 0.762207 3.80952C0.762207 3.89513 0.793206 3.97785 0.849488 4.04243L3.8304 7.49505C3.86398 7.53396 3.90557 7.56517 3.95233 7.58657C3.99909 7.60797 4.04992 7.61905 4.10136 7.61905C4.1528 7.61905 4.20363 7.60797 4.25039 7.58657C4.29715 7.56517 4.33874 7.53396 4.37232 7.49505L7.35323 4.04243C7.40951 3.97785 7.44051 3.89513 7.44051 3.80952C7.44051 3.72392 7.40951 3.6412 7.35323 3.57662V3.57662ZM5.95146 3.96355L4.28364 5.87068C4.26094 5.89647 4.23299 5.91713 4.20166 5.93128C4.17033 5.94543 4.13634 5.95275 4.10196 5.95275C4.06757 5.95275 4.03358 5.94543 4.00225 5.93128C3.97092 5.91713 3.94297 5.89647 3.92027 5.87068L2.25245 3.96415C2.21491 3.92142 2.19421 3.86651 2.19421 3.80967C2.19421 3.75283 2.21491 3.69793 2.25245 3.6552L3.92027 1.74866C3.94297 1.72288 3.97092 1.70222 4.00225 1.68807C4.03358 1.67391 4.06757 1.66659 4.10196 1.66659C4.13634 1.66659 4.17033 1.67391 4.20166 1.68807C4.23299 1.70222 4.26094 1.72288 4.28364 1.74866L5.95146 3.6552C5.989 3.69793 6.0097 3.75283 6.0097 3.80967C6.0097 3.86651 5.989 3.92142 5.95146 3.96415V3.96355Z" fill="white" fill-opacity="0.4"/>
<path d="M5.95159 3.65511C5.98913 3.69784 6.00983 3.75274 6.00983 3.80958C6.00983 3.86642 5.98913 3.92133 5.95159 3.96406L4.28377 5.87059C4.26107 5.89638 4.23312 5.91704 4.20179 5.93119C4.17046 5.94534 4.13647 5.95266 4.10208 5.95266C4.0677 5.95266 4.03371 5.94534 4.00238 5.93119C3.97105 5.91704 3.9431 5.89638 3.9204 5.87059L2.25258 3.96406C2.21504 3.92133 2.19434 3.86642 2.19434 3.80958C2.19434 3.75274 2.21504 3.69784 2.25258 3.65511L3.9204 1.74857C3.9431 1.72279 3.97105 1.70213 4.00238 1.68798C4.03371 1.67382 4.0677 1.6665 4.10208 1.6665C4.13647 1.6665 4.17046 1.67382 4.20179 1.68798C4.23312 1.70213 4.26107 1.72279 4.28377 1.74857L5.95159 3.65511Z" fill="white"/>
</svg>
