<svg width="195" height="46" viewBox="0 0 195 46" fill="none" xmlns="http://www.w3.org/2000/svg">
<path d="M63.5625 34.4375V18.7188C63.5625 18.1042 63.651 17.5052 63.8281 16.9219C64.0156 16.3281 64.2812 15.7865 64.625 15.2969C65.3125 14.2552 66.2188 13.5104 67.3438 13.0625C68.1146 12.7396 68.9167 12.5781 69.75 12.5781C71.0312 12.5781 72.1823 12.9271 73.2031 13.625C74.224 14.3125 74.9583 15.2083 75.4062 16.3125C75.75 17.125 75.9219 17.9271 75.9219 18.7188V34.4375C75.9219 34.8646 75.7656 35.2344 75.4531 35.5469C75.1406 35.849 74.7604 36 74.3125 36C73.8854 36 73.5156 35.849 73.2031 35.5469C72.901 35.2344 72.75 34.8646 72.75 34.4375V27.9688C72.75 27.8021 72.6979 27.6667 72.5938 27.5625C72.4896 27.4479 72.349 27.3906 72.1719 27.3906H67.3125C67.1458 27.3906 67.0052 27.4479 66.8906 27.5625C66.7865 27.6667 66.7344 27.8021 66.7344 27.9688V34.4375C66.7344 34.8646 66.5781 35.2344 66.2656 35.5469C65.9635 35.849 65.5885 36 65.1406 36C64.7135 36 64.3438 35.849 64.0312 35.5469C63.7188 35.2344 63.5625 34.8646 63.5625 34.4375ZM66.7344 23.6875C66.7344 23.8542 66.7865 23.9844 66.8906 24.0781C67.0052 24.1719 67.1458 24.2188 67.3125 24.2188H72.1719C72.3385 24.2188 72.474 24.1719 72.5781 24.0781C72.6927 23.9844 72.75 23.8542 72.75 23.6875V18.7188C72.75 18.0833 72.5781 17.5312 72.2344 17.0625C71.9115 16.5729 71.474 16.2083 70.9219 15.9688C70.5156 15.8021 70.125 15.7188 69.75 15.7188C69.1771 15.7188 68.6094 15.8854 68.0469 16.2188C67.5573 16.5417 67.1927 16.9896 66.9531 17.5625C66.8698 17.7292 66.8125 17.9167 66.7812 18.125C66.75 18.3333 66.7344 18.5312 66.7344 18.7188V23.6875ZM79.0469 34.4062V14.1406C79.0469 13.7135 79.1979 13.349 79.5 13.0469C79.8125 12.7344 80.1823 12.5781 80.6094 12.5781C81.0365 12.5781 81.401 12.7344 81.7031 13.0469C82.0156 13.349 82.1719 13.7135 82.1719 14.1406V34.4062C82.1719 34.8542 82.0156 35.2344 81.7031 35.5469C81.401 35.849 81.0365 36 80.6094 36C80.1823 36 79.8125 35.849 79.5 35.5469C79.1979 35.2344 79.0469 34.8542 79.0469 34.4062ZM85.5469 34.375V14.1094C85.5469 13.6823 85.7031 13.3073 86.0156 12.9844C86.3177 12.6823 86.6927 12.5365 87.1406 12.5469H91.0469C92.3906 12.5469 93.625 12.9167 94.75 13.6562C95.8333 14.4271 96.6354 15.401 97.1562 16.5781C97.5 17.3906 97.6719 18.2552 97.6719 19.1719V29.3125C97.6719 30.6771 97.2969 31.9167 96.5469 33.0312C95.776 34.1667 94.7969 34.9635 93.6094 35.4219C92.776 35.7865 91.9219 35.9688 91.0469 35.9688H87.1406C86.7135 35.9688 86.3385 35.8073 86.0156 35.4844C85.7031 35.1719 85.5469 34.8021 85.5469 34.375ZM88.7031 32.25C88.7031 32.3958 88.7552 32.526 88.8594 32.6406C88.974 32.7448 89.1146 32.7969 89.2812 32.7969H91.0469C91.7344 32.7969 92.3854 32.6042 93 32.2188C93.5729 31.8125 93.9896 31.3021 94.25 30.6875C94.4375 30.2396 94.5312 29.7812 94.5312 29.3125V19.1719C94.5312 18.5156 94.3281 17.8646 93.9219 17.2188C93.5156 16.625 93.0052 16.2083 92.3906 15.9688C91.9635 15.7812 91.5156 15.6875 91.0469 15.6875H89.2812C89.1146 15.6875 88.974 15.7396 88.8594 15.8438C88.7552 15.9479 88.7031 16.0833 88.7031 16.25V32.25ZM100.641 34.4062V14.1406C100.641 13.7135 100.797 13.3438 101.109 13.0312C101.411 12.7292 101.786 12.5781 102.234 12.5781H106.594C107.958 12.5781 109.193 12.9531 110.297 13.7031C111.401 14.4531 112.214 15.4219 112.734 16.6094C112.901 17.0365 113.026 17.4635 113.109 17.8906C113.203 18.3177 113.25 18.7552 113.25 19.2031C113.25 20.5885 112.865 21.8229 112.094 22.9062C111.948 23.1458 111.781 23.375 111.594 23.5938C111.417 23.8021 111.229 23.9896 111.031 24.1562C110.927 24.2604 110.865 24.3906 110.844 24.5469C110.823 24.6927 110.854 24.8177 110.938 24.9219C111.531 25.7135 111.896 26.5781 112.031 27.5156C112.094 27.901 112.161 28.3542 112.234 28.875C112.307 29.3958 112.38 29.9427 112.453 30.5156C112.536 31.0781 112.615 31.6198 112.688 32.1406C112.76 32.6615 112.828 33.0938 112.891 33.4375L112.984 34.1719C112.995 34.2552 113 34.3385 113 34.4219C113 34.7552 112.896 35.0625 112.688 35.3438C112.417 35.6979 112.068 35.9062 111.641 35.9688C111.599 35.9896 111.526 36 111.422 36C111.036 36 110.693 35.875 110.391 35.625C110.099 35.3646 109.917 35.0312 109.844 34.625C109.844 34.6042 109.807 34.3333 109.734 33.8125C109.661 33.2917 109.578 32.6719 109.484 31.9531C109.391 31.2344 109.286 30.5104 109.172 29.7812C109.068 29.0417 108.984 28.4375 108.922 27.9688C108.818 27.3542 108.542 26.8542 108.094 26.4688C107.625 26.0625 107.089 25.8594 106.484 25.8594H104.375C104.208 25.8594 104.068 25.9115 103.953 26.0156C103.849 26.1198 103.797 26.2604 103.797 26.4375V34.4062C103.797 34.8542 103.641 35.2344 103.328 35.5469C103.026 35.849 102.661 36 102.234 36C101.786 36 101.406 35.849 101.094 35.5469C100.792 35.2344 100.641 34.8542 100.641 34.4062ZM103.797 22.1406C103.797 22.2865 103.849 22.4167 103.953 22.5312C104.068 22.6354 104.208 22.6875 104.375 22.6875H106.484H106.516H106.562H106.594C107.323 22.6875 107.969 22.4948 108.531 22.1094C109.125 21.724 109.552 21.2135 109.812 20.5781C109.979 20.1094 110.068 19.651 110.078 19.2031C110.078 18.5156 109.885 17.8646 109.5 17.25C109.094 16.6771 108.583 16.2604 107.969 16C107.521 15.8125 107.062 15.7188 106.594 15.7188H104.375C104.208 15.7188 104.068 15.7708 103.953 15.875C103.849 15.9792 103.797 16.1146 103.797 16.2812V22.1406ZM116.141 34.375V14.1094C116.141 13.6823 116.292 13.3177 116.594 13.0156C116.906 12.7031 117.276 12.5469 117.703 12.5469H125.641C126.068 12.5469 126.432 12.7031 126.734 13.0156C127.047 13.3177 127.203 13.6823 127.203 14.1094C127.203 14.5365 127.047 14.9062 126.734 15.2188C126.432 15.5312 126.068 15.6875 125.641 15.6875H119.844C119.677 15.6875 119.536 15.7396 119.422 15.8438C119.318 15.9479 119.266 16.0833 119.266 16.25V22.1094C119.266 22.276 119.318 22.4115 119.422 22.5156C119.536 22.6094 119.677 22.6562 119.844 22.6562H124.031C124.458 22.6562 124.828 22.8125 125.141 23.125C125.453 23.4271 125.609 23.8021 125.609 24.25C125.609 24.6771 125.453 25.0469 125.141 25.3594C124.828 25.6719 124.458 25.8281 124.031 25.8281H119.844C119.677 25.8281 119.536 25.8802 119.422 25.9844C119.318 26.0885 119.266 26.2292 119.266 26.4062V32.25C119.266 32.3958 119.318 32.526 119.422 32.6406C119.536 32.7448 119.677 32.7969 119.844 32.7969H125.641C126.068 32.7969 126.432 32.9531 126.734 33.2656C127.047 33.5781 127.203 33.9479 127.203 34.375C127.203 34.8229 127.047 35.2031 126.734 35.5156C126.432 35.8177 126.068 35.9688 125.641 35.9688H117.703C117.276 35.9688 116.906 35.8177 116.594 35.5156C116.292 35.2031 116.141 34.8229 116.141 34.375ZM129.094 34.4375V18.7188C129.094 18.1042 129.182 17.5052 129.359 16.9219C129.547 16.3281 129.812 15.7865 130.156 15.2969C130.844 14.2552 131.75 13.5104 132.875 13.0625C133.646 12.7396 134.448 12.5781 135.281 12.5781C136.562 12.5781 137.714 12.9271 138.734 13.625C139.755 14.3125 140.49 15.2083 140.938 16.3125C141.281 17.125 141.453 17.9271 141.453 18.7188V34.4375C141.453 34.8646 141.297 35.2344 140.984 35.5469C140.672 35.849 140.292 36 139.844 36C139.417 36 139.047 35.849 138.734 35.5469C138.432 35.2344 138.281 34.8646 138.281 34.4375V27.9688C138.281 27.8021 138.229 27.6667 138.125 27.5625C138.021 27.4479 137.88 27.3906 137.703 27.3906H132.844C132.677 27.3906 132.536 27.4479 132.422 27.5625C132.318 27.6667 132.266 27.8021 132.266 27.9688V34.4375C132.266 34.8646 132.109 35.2344 131.797 35.5469C131.495 35.849 131.12 36 130.672 36C130.245 36 129.875 35.849 129.562 35.5469C129.25 35.2344 129.094 34.8646 129.094 34.4375ZM132.266 23.6875C132.266 23.8542 132.318 23.9844 132.422 24.0781C132.536 24.1719 132.677 24.2188 132.844 24.2188H137.703C137.87 24.2188 138.005 24.1719 138.109 24.0781C138.224 23.9844 138.281 23.8542 138.281 23.6875V18.7188C138.281 18.0833 138.109 17.5312 137.766 17.0625C137.443 16.5729 137.005 16.2083 136.453 15.9688C136.047 15.8021 135.656 15.7188 135.281 15.7188C134.708 15.7188 134.141 15.8854 133.578 16.2188C133.089 16.5417 132.724 16.9896 132.484 17.5625C132.401 17.7292 132.344 17.9167 132.312 18.125C132.281 18.3333 132.266 18.5312 132.266 18.7188V23.6875ZM144.344 34.4375V18.2031C144.344 17.026 144.667 15.974 145.312 15.0469C145.927 14.1302 146.755 13.4583 147.797 13.0312C148.141 12.8646 148.495 12.75 148.859 12.6875C149.224 12.6146 149.599 12.5781 149.984 12.5781C151.141 12.5781 152.198 12.8958 153.156 13.5312C153.5 13.7396 153.797 13.9844 154.047 14.2656C154.557 13.7344 155.188 13.3229 155.938 13.0312C156.281 12.8646 156.63 12.75 156.984 12.6875C157.349 12.6146 157.724 12.5781 158.109 12.5781C159.266 12.5781 160.323 12.8958 161.281 13.5312C162.198 14.1458 162.87 14.9688 163.297 16C163.599 16.7292 163.745 17.4635 163.734 18.2031V28.1562V34.4375C163.734 34.8646 163.578 35.2344 163.266 35.5469C162.964 35.849 162.589 36 162.141 36C161.714 36 161.344 35.849 161.031 35.5469C160.729 35.2344 160.578 34.8646 160.578 34.4375L160.609 28.1562V18.2031C160.609 17.6927 160.458 17.224 160.156 16.7969C159.875 16.3906 159.51 16.0938 159.062 15.9062C158.76 15.7812 158.443 15.7188 158.109 15.7188C157.641 15.7188 157.182 15.8542 156.734 16.125C156.286 16.4271 155.99 16.8021 155.844 17.25C155.719 17.5521 155.651 17.8698 155.641 18.2031V34.4375C155.641 34.8646 155.484 35.2344 155.172 35.5469C154.87 35.849 154.495 36 154.047 36C153.62 36 153.25 35.849 152.938 35.5469C152.625 35.2344 152.469 34.8646 152.469 34.4375V18.2031C152.469 17.6927 152.323 17.224 152.031 16.7969C151.75 16.3906 151.385 16.0938 150.938 15.9062C150.635 15.7812 150.318 15.7188 149.984 15.7188C149.516 15.7188 149.057 15.8542 148.609 16.125C148.161 16.4271 147.859 16.8021 147.703 17.25C147.578 17.5521 147.516 17.8698 147.516 18.2031V34.4375C147.516 34.8646 147.359 35.2344 147.047 35.5469C146.745 35.849 146.37 36 145.922 36C145.495 36 145.125 35.849 144.812 35.5469C144.5 35.2344 144.344 34.8646 144.344 34.4375ZM167.234 34.375V14.1094C167.234 13.6823 167.385 13.3177 167.688 13.0156C168 12.7031 168.37 12.5469 168.797 12.5469H176.734C177.161 12.5469 177.526 12.7031 177.828 13.0156C178.141 13.3177 178.297 13.6823 178.297 14.1094C178.297 14.5365 178.141 14.9062 177.828 15.2188C177.526 15.5312 177.161 15.6875 176.734 15.6875H170.938C170.771 15.6875 170.63 15.7396 170.516 15.8438C170.411 15.9479 170.359 16.0833 170.359 16.25V22.1094C170.359 22.276 170.411 22.4115 170.516 22.5156C170.63 22.6094 170.771 22.6562 170.938 22.6562H175.125C175.552 22.6562 175.922 22.8125 176.234 23.125C176.547 23.4271 176.703 23.8021 176.703 24.25C176.703 24.6771 176.547 25.0469 176.234 25.3594C175.922 25.6719 175.552 25.8281 175.125 25.8281H170.938C170.771 25.8281 170.63 25.8802 170.516 25.9844C170.411 26.0885 170.359 26.2292 170.359 26.4062V32.25C170.359 32.3958 170.411 32.526 170.516 32.6406C170.63 32.7448 170.771 32.7969 170.938 32.7969H176.734C177.161 32.7969 177.526 32.9531 177.828 33.2656C178.141 33.5781 178.297 33.9479 178.297 34.375C178.297 34.8229 178.141 35.2031 177.828 35.5156C177.526 35.8177 177.161 35.9688 176.734 35.9688H168.797C168.37 35.9688 168 35.8177 167.688 35.5156C167.385 35.2031 167.234 34.8229 167.234 34.375ZM180.547 34.4062V14.1406C180.547 13.7135 180.703 13.3438 181.016 13.0312C181.318 12.7292 181.693 12.5781 182.141 12.5781H186.5C187.865 12.5781 189.099 12.9531 190.203 13.7031C191.307 14.4531 192.12 15.4219 192.641 16.6094C192.807 17.0365 192.932 17.4635 193.016 17.8906C193.109 18.3177 193.156 18.7552 193.156 19.2031C193.156 20.5885 192.771 21.8229 192 22.9062C191.854 23.1458 191.688 23.375 191.5 23.5938C191.323 23.8021 191.135 23.9896 190.938 24.1562C190.833 24.2604 190.771 24.3906 190.75 24.5469C190.729 24.6927 190.76 24.8177 190.844 24.9219C191.438 25.7135 191.802 26.5781 191.938 27.5156C192 27.901 192.068 28.3542 192.141 28.875C192.214 29.3958 192.286 29.9427 192.359 30.5156C192.443 31.0781 192.521 31.6198 192.594 32.1406C192.667 32.6615 192.734 33.0938 192.797 33.4375L192.891 34.1719C192.901 34.2552 192.906 34.3385 192.906 34.4219C192.906 34.7552 192.802 35.0625 192.594 35.3438C192.323 35.6979 191.974 35.9062 191.547 35.9688C191.505 35.9896 191.432 36 191.328 36C190.943 36 190.599 35.875 190.297 35.625C190.005 35.3646 189.823 35.0312 189.75 34.625C189.75 34.6042 189.714 34.3333 189.641 33.8125C189.568 33.2917 189.484 32.6719 189.391 31.9531C189.297 31.2344 189.193 30.5104 189.078 29.7812C188.974 29.0417 188.891 28.4375 188.828 27.9688C188.724 27.3542 188.448 26.8542 188 26.4688C187.531 26.0625 186.995 25.8594 186.391 25.8594H184.281C184.115 25.8594 183.974 25.9115 183.859 26.0156C183.755 26.1198 183.703 26.2604 183.703 26.4375V34.4062C183.703 34.8542 183.547 35.2344 183.234 35.5469C182.932 35.849 182.568 36 182.141 36C181.693 36 181.312 35.849 181 35.5469C180.698 35.2344 180.547 34.8542 180.547 34.4062ZM183.703 22.1406C183.703 22.2865 183.755 22.4167 183.859 22.5312C183.974 22.6354 184.115 22.6875 184.281 22.6875H186.391H186.422H186.469H186.5C187.229 22.6875 187.875 22.4948 188.438 22.1094C189.031 21.724 189.458 21.2135 189.719 20.5781C189.885 20.1094 189.974 19.651 189.984 19.2031C189.984 18.5156 189.792 17.8646 189.406 17.25C189 16.6771 188.49 16.2604 187.875 16C187.427 15.8125 186.969 15.7188 186.5 15.7188H184.281C184.115 15.7188 183.974 15.7708 183.859 15.875C183.755 15.9792 183.703 16.1146 183.703 16.2812V22.1406Z" fill="white"/>
<path d="M16.6846 22.3792L21.2298 27.5366L7.34159 44.3618C7.34159 44.3618 4.90063 47.4901 2.12299 45.0382C-0.654653 42.5863 2.12299 39.7962 2.12299 39.7962L5.82653 35.4842C5.82653 35.4842 4.2174 33.8194 3.13306 32.6941C2.04873 31.5688 1.02879 30.0731 1.02879 30.0731C1.02879 30.0731 -1.49632 26.6066 1.36548 24.5774C4.22728 22.5483 5.65819 25.1693 7.34162 27.0293C9.02505 28.8894 10.2876 30.0731 10.2876 30.0731L16.6846 22.3792Z" fill="white"/>
<path d="M18.368 34.1314C18.368 34.1314 20.2198 34.8924 23.5025 34.6387C26.7851 34.3851 28.8052 33.6241 28.8052 33.6241L16.9371 19.1663C16.9371 19.1663 12.8128 13.8398 13.1494 9.27417C13.4861 4.70856 15.8429 2.6794 15.8429 2.6794C15.8429 2.6794 17.358 0.734782 20.809 0.142943C24.26 -0.448896 26.701 0.988427 26.701 0.988427C26.701 0.988427 29.3944 1.91846 30.9095 5.04675C32.4246 8.17505 31.6671 11.3879 31.4145 12.6561C31.162 13.9243 29.647 16.799 29.647 16.799L26.9611 20.7728L22.4924 15.3617C22.4924 15.3617 24.765 12.1488 25.0175 10.2888C25.2701 8.42869 24.6809 7.27442 22.9974 6.90682C21.314 6.53921 20.304 7.58321 19.9673 8.76688C19.6306 9.95056 20.1356 11.8106 20.809 12.8252C21.4824 13.8398 22.4924 15.3617 22.4924 15.3617L34.7814 30.2422L38.9899 25.1693C38.9899 25.1693 41.0942 22.971 43.5352 24.4929C45.9761 26.0148 44.6294 29.0585 44.6294 29.0585C44.6294 29.0585 41.5992 33.2859 38.7374 35.6533C35.8756 38.0206 32.5929 39.458 32.5929 39.458C32.5929 39.458 29.8153 41.2335 23.5025 41.5717C17.1896 41.9099 13.5703 39.9653 13.5703 39.9653L18.368 34.1314Z" fill="white"/>
<path d="M34.6972 40.8107L40.505 37.0061L42.8507 39.8928C42.8507 39.8928 45.5553 43.2626 42.6935 45.2918C39.8316 47.321 37.5354 44.3445 37.5354 44.3445L34.6972 40.8107Z" fill="white"/>
</svg>
